<?xml version="1.0" encoding="UTF-8"?>
<svg version="1.1" xmlns="http://www.w3.org/2000/svg" width="640" height="110">
<path d="M0 0 C14.52 0 29.04 0 44 0 C44 14 44 14 43 16 C34.75 16 26.5 16 18 16 C17.67 18.97 17.34 21.94 17 25 C24.26 25 31.52 25 39 25 C39 36 39 36 38 41 C30.74 41 23.48 41 16 41 C16 43.31 16 45.62 16 48 C15.67 48.66 15.34 49.32 15 50 C23.91 49.67 32.82 49.34 42 49 C42.495 54.445 42.495 54.445 43 60 C52.43633792 40.17204056 61.50431113 20.25043158 70 0 C77.59 0 85.18 0 93 0 C95.04558264 6.66679827 97.09054691 13.33378037 99.1340332 20.0012207 C99.82704609 22.26174362 100.52039606 24.52216323 101.21411133 26.7824707 C105.21935689 39.8334983 109.18003749 52.89344902 113 66 C106.07 66 99.14 66 92 66 C91.01 62.3803125 91.01 62.3803125 90 58.6875 C89.79117188 57.93170654 89.58234375 57.17591309 89.3671875 56.3972168 C88.58704073 53.50765532 88 51.00602113 88 48 C82.06 48.33 76.12 48.66 70 49 C66.535 57.415 66.535 57.415 63 66 C40.89 66 18.78 66 -4 66 C-3.40530322 56.48485153 -2.77946208 46.99732926 -2 37.5 C-1.00182021 25.00515942 -0.45276146 12.52640052 0 0 Z M80 19 C79.32694982 20.60149886 78.66177773 22.20631029 78 23.8125 C77.62875 24.70582031 77.2575 25.59914063 76.875 26.51953125 C75.83366763 29.0331433 75.83366763 29.0331433 76 32 C78.64 32 81.28 32 84 32 C83.52060632 27.28596212 83.03165952 23.33420699 81 19 C80.67 19 80.34 19 80 19 Z " fill="#031FDE" transform="translate(350,21)"/>
<path d="M0 0 C7.59 0 15.18 0 23 0 C28.28 11.55 33.56 23.1 39 35 C39.2888733 24.97816202 39.2888733 24.97816202 39.56811523 14.95605469 C39.60622314 13.70727539 39.64433105 12.45849609 39.68359375 11.171875 C39.72025146 9.8940918 39.75690918 8.61630859 39.79467773 7.29980469 C40 4 40 4 41 0 C46.61 0 52.22 0 58 0 C58.12871658 14.21513678 57.61771843 28.36223129 57 42.5625 C56.9033193 44.84568932 56.80696293 47.1288924 56.7109375 49.41210938 C56.47828546 54.94160662 56.23901001 60.47075951 56 66 C48.41 66 40.82 66 33 66 C27.96061496 54.68348623 22.95066237 43.3555818 18 32 C16.88221239 35.35336284 16.8089562 38.03325011 16.71875 41.56640625 C16.68136719 42.85611328 16.64398438 44.14582031 16.60546875 45.47460938 C16.55178213 47.52430553 16.49970754 49.57403856 16.44775391 51.6237793 C16.39602877 53.60475715 16.3387225 55.58558681 16.28125 57.56640625 C16.23581055 59.34446655 16.23581055 59.34446655 16.18945312 61.15844727 C16 64 16 64 15 66 C9.39 66 3.78 66 -2 66 C-2.13749203 51.97581285 -1.59422227 38.01008616 -1 24 C-0.9033455 21.66407491 -0.80698915 19.32813746 -0.7109375 16.9921875 C-0.47794034 11.3279461 -0.23884379 5.6640098 0 0 Z " fill="#0320DD" transform="translate(237,21)"/>
<path d="M0 0 C6.6 0 13.2 0 20 0 C20.08051402 8.21243014 19.8223186 15.77681402 19 24 C25.93 24 32.86 24 40 24 C40 16.08 40 8.16 40 0 C46.27 0 52.54 0 59 0 C59.04226744 10.61516654 58.93075066 21.20818871 58.62768555 31.81884766 C58.56234606 34.13044605 58.50267908 36.44214643 58.44335938 38.75390625 C58.19680943 47.86427165 57.71809185 56.91221575 57 66 C50.4 66 43.8 66 37 66 C36.88031859 57.26325705 37.3608091 48.70897602 38 40 C31.73 40 25.46 40 19 40 C19 48.58 19 57.16 19 66 C12.07 66 5.14 66 -2 66 C-1.46713251 43.99370632 -0.89041793 21.9952173 0 0 Z " fill="#021FDF" transform="translate(578,21)"/>
<path d="M0 0 C8.06913558 6.63462259 12.28904227 13.14257489 13.625 23.5 C14.36649361 34.62240417 12.27222431 44.70592799 5.4375 53.5625 C-1.92101257 61.27141793 -10.21709213 63.44326288 -20.625 63.75 C-30.36910078 63.51425563 -38.308218 61.18284407 -45.46484375 54.37890625 C-52.94145128 45.41036797 -53.88505628 35.51297697 -53.37109375 24.30859375 C-52.93708975 19.58995447 -51.31379611 15.50172579 -49.1875 11.3125 C-48.86007813 10.65894531 -48.53265625 10.00539063 -48.1953125 9.33203125 C-44.22275371 2.76426069 -36.51309195 -1.96734507 -29.25 -4.125 C-18.96945369 -6.01712509 -9.23354495 -4.88834733 0 0 Z M-28.1875 14.3125 C-33.70647522 20.13808496 -34.65347556 25.55911823 -34.5 33.3671875 C-33.90063751 39.01617894 -31.68999114 42.01034101 -27.375 45.75 C-22.54859012 48.1158872 -19.12532235 47.93260315 -14.0625 46.3125 C-9.23747425 42.95596035 -6.30994229 38.08671341 -5.1875 32.3125 C-4.75746567 26.7220537 -5.47221381 22.20001514 -8.1875 17.3125 C-11.23959157 13.97649294 -13.76655708 12.11553934 -18.1875 11.3125 C-22.59417793 11.3125 -24.57209918 11.84745399 -28.1875 14.3125 Z " fill="#0320DD" transform="translate(216.1875,24.6875)"/>
<path d="M0 0 C7.59 0 15.18 0 23 0 C23.78310547 2.62195313 23.78310547 2.62195313 24.58203125 5.296875 C30.64183448 25.55572463 36.80494927 45.78213352 43 66 C36.07 66 29.14 66 22 66 C18 52.5 18 52.5 18 48 C12.06 48.33 6.12 48.66 0 49 C-2.31 54.61 -4.62 60.22 -7 66 C-14.26 66 -21.52 66 -29 66 C-26.75057779 59.25173337 -26.75057779 59.25173337 -25.26342773 56.07202148 C-24.93198257 55.3587973 -24.60053741 54.64557312 -24.25904846 53.91073608 C-23.90414841 53.15515411 -23.54924835 52.39957214 -23.18359375 51.62109375 C-22.41517412 49.96949531 -21.64678326 48.31788348 -20.87841797 46.66625977 C-20.47894958 45.81073517 -20.0794812 44.95521057 -19.66790771 44.07376099 C-12.85711541 29.48101599 -6.21902308 14.85655514 0 0 Z M10 18 C9.32739649 19.76858691 8.66211605 21.53996016 8 23.3125 C7.62875 24.29863281 7.2575 25.28476562 6.875 26.30078125 C5.84581498 29.00271656 5.84581498 29.00271656 6 32 C8.64 32 11.28 32 14 32 C13.71715982 30.22773547 13.42339502 28.457212 13.125 26.6875 C12.88136719 25.20830078 12.88136719 25.20830078 12.6328125 23.69921875 C12.11914546 20.79940173 12.11914546 20.79940173 10 18 Z " fill="#031FDE" transform="translate(75,21)"/>
<path d="M0 0 C4.83801979 -0.07463717 9.67569804 -0.12883014 14.51416016 -0.16479492 C16.15712326 -0.17980136 17.80004686 -0.20021312 19.44287109 -0.22631836 C21.81618042 -0.26306359 24.18895625 -0.27980772 26.5625 -0.29296875 C27.28679199 -0.30845261 28.01108398 -0.32393646 28.75732422 -0.33988953 C34.40277573 -0.34171666 40.23752339 0.50443414 44.56835938 4.41682434 C49.31194574 9.90196613 49.34719977 14.72523381 49.27734375 21.6953125 C48.84119911 26.89219086 47.42040542 30.92789682 43.3984375 34.37109375 C41.75 35.5 41.75 35.5 39 37 C39.54238803 43.29342303 41.62308603 48.51941846 44.0625 54.3125 C44.80635618 56.09902638 45.54738997 57.88673138 46.28515625 59.67578125 C46.61394775 60.45864502 46.94273926 61.24150879 47.28149414 62.0480957 C48 64 48 64 48 66 C41.4 66 34.8 66 28 66 C26.57340264 61.05276416 25.14840772 56.10512586 23.72753906 51.15625 C23.24346359 49.47205722 22.75844114 47.78813634 22.27246094 46.10449219 C21.57499359 43.68755432 20.88091271 41.26966629 20.1875 38.8515625 C19.96876221 38.0963028 19.75002441 37.34104309 19.5246582 36.56289673 C18 31.22774341 18 31.22774341 18 29 C19.98567708 28.77213542 21.97135417 28.54427083 23.95703125 28.31640625 C26.19396393 28.02829265 26.19396393 28.02829265 29 27 C29.08096803 25.54257537 29.13917774 24.08387193 29.1875 22.625 C29.22230469 21.81289063 29.25710938 21.00078125 29.29296875 20.1640625 C29.19628906 19.44992188 29.09960938 18.73578125 29 18 C25.96474514 15.97649676 24.80573798 15.67875982 21.3125 15.375 C19.15625 15.1875 19.15625 15.1875 17 15 C17.00580078 16.01763428 17.01160156 17.03526855 17.01757812 18.08374023 C17.05903119 28.75320081 16.84423815 39.39920344 16.5 50.0625 C16.45158347 51.62303946 16.40340553 53.18358635 16.35546875 54.74414062 C16.24014296 58.49620558 16.11999319 62.24807009 16 66 C9.73 66 3.46 66 -3 66 C-2 44 -1 22 0 0 Z " fill="#031FDE" transform="translate(468,21)"/>
<path d="M0 0 C0.495 7.92 0.495 7.92 1 16 C-0.134375 15.89300781 -1.26875 15.78601563 -2.4375 15.67578125 C-13.61807691 14.48395756 -13.61807691 14.48395756 -24 18 C-28.47981146 22.47981146 -30.28573006 27.14656416 -30.3125 33.4375 C-30.22023285 38.00779936 -29.68127955 41.16960064 -27 45 C-22.83429134 48.77517347 -19.03431938 49.21249439 -13.62890625 49.16796875 C-9.00088558 48.87227055 -4.5412057 47.91973786 0 47 C-0.66 52.61 -1.32 58.22 -2 64 C-15.13803012 67.28450753 -26.29487074 67.32700062 -38.27734375 60.75 C-44.44812562 56.7050927 -47.30666414 51.04765085 -49.61328125 44.171875 C-51.63411699 32.82253488 -50.2942167 21.29328945 -44.5 11.3125 C-39.84773769 4.78544541 -32.16689197 -0.30852224 -24.22265625 -1.79296875 C-15.84566602 -2.57325079 -8.11786961 -2.20145616 0 0 Z " fill="#0420DD" transform="translate(570,22)"/>
<path d="M0 0 C0.99250545 5.70690634 1.10477512 11.21408489 1 17 C0.12988281 16.7834375 0.12988281 16.7834375 -0.7578125 16.5625 C-8.46033189 14.4870912 -8.46033189 14.4870912 -16 16 C-15.79443629 21.24978097 -14.06961815 23.41235222 -10.4375 26.85546875 C-9.839375 27.39816406 -9.24125 27.94085938 -8.625 28.5 C-3.7176838 33.01087362 0.40506718 36.84713563 1.3984375 43.78125 C1.33723507 50.88073213 0.38072 55.07511542 -4.1875 60.6875 C-11.69132939 66.85731528 -19.65572587 66.65116893 -29 66 C-36.13884007 64.86115993 -36.13884007 64.86115993 -38 63 C-38.23701239 60.14122091 -38.42219182 57.30116703 -38.5625 54.4375 C-38.62727539 53.22803711 -38.62727539 53.22803711 -38.69335938 51.99414062 C-38.79975262 49.99631195 -38.90040888 47.9981793 -39 46 C-36.24094947 46.51558015 -33.76647016 47.08630451 -31.125 48.0625 C-27.05808132 49.2825756 -22.9071292 49.9535646 -19 48 C-19.49056144 43.47235918 -21.06112405 41.42908579 -24.1875 38.1875 C-31.52112559 30.35093039 -36.4607927 24.91991054 -36.34375 13.859375 C-35.62577921 7.88716343 -32.55350568 4.26222336 -28 0.5625 C-19.34408348 -3.94578985 -9.08458701 -2.3828425 0 0 Z " fill="#0320DD" transform="translate(338,22)"/>
<path d="M0 0 C0.495 8.415 0.495 8.415 1 17 C-1.2584375 16.4740625 -1.2584375 16.4740625 -3.5625 15.9375 C-8.10598653 15.0132915 -11.4925129 15.0201115 -16 16 C-16.33 16.99 -16.66 17.98 -17 19 C-15.84354899 20.83577501 -15.84354899 20.83577501 -14.0625 22.625 C-13.41925781 23.32753906 -12.77601563 24.03007813 -12.11328125 24.75390625 C-10.6943371 26.26202619 -9.27506159 27.76983441 -7.85546875 29.27734375 C-2.81294327 34.75021463 0.54564069 38.83503967 1.375 46.4375 C0.61633154 53.64485042 -1.38890204 58.10076208 -6.98828125 62.7734375 C-15.0183299 67.66942833 -25.48214465 66.97305824 -34.375 65 C-35.57125 64.67 -36.7675 64.34 -38 64 C-38.77040851 57.93303301 -39.09706112 52.11485027 -39 46 C-38.28714844 46.2165625 -37.57429688 46.433125 -36.83984375 46.65625 C-27.90991301 49.57174941 -27.90991301 49.57174941 -19 48 C-19.3454097 42.6905594 -22.24622269 40.19548779 -25.8125 36.625 C-30.80090097 31.59447743 -35.36727851 26.94985694 -36.53125 19.68359375 C-36.42516839 8.66436668 -36.42516839 8.66436668 -32 4 C-23.26556847 -4.49836581 -10.86048778 -2.84865253 0 0 Z " fill="#0420DD" transform="translate(157,22)"/>
<path d="M0 0 C13.2 0 26.4 0 40 0 C40 3.96 40 7.92 40 12 C27.625 12.495 27.625 12.495 15 13 C14.67 16.96 14.34 20.92 14 25 C20.93 25 27.86 25 35 25 C35 28.96 35 32.92 35 37 C27.74 37.33 20.48 37.66 13 38 C12.67 41.96 12.34 45.92 12 50 C20.91 49.67 29.82 49.34 39 49 C39 58 39 58 38 62 C24.14 62 10.28 62 -4 62 C-4 54.70910013 -3.82985593 47.77007371 -3.125 40.5625 C-1.87383323 27.05512153 -0.94255472 13.53239271 0 0 Z " fill="#021FDF" transform="translate(352,23)"/>
<path d="M0 0 C6.27 0 12.54 0 19 0 C19.09673961 10.44787742 18.95058335 20.86894751 18.625 31.3125 C18.59414307 32.47942383 18.56328613 33.64634766 18.53149414 34.84863281 C17.78735304 56.72421524 17.78735304 56.72421524 11.74609375 62.6640625 C4.99900144 67.82626735 -2.79226928 67.7479007 -11 67 C-14.75195598 66.22280912 -18.36984492 65.22217646 -22 64 C-22.91657981 58.61509359 -23.11138159 53.45769811 -23 48 C-22.43152344 48.144375 -21.86304688 48.28875 -21.27734375 48.4375 C-16.46015876 49.59555449 -11.97831338 50.58568393 -7 50 C-4.14003947 48.0431849 -3.18195426 46.82149182 -2.43188477 43.43505859 C-1.89683044 39.17942581 -1.66065526 34.94697615 -1.46484375 30.6640625 C-1.40037804 29.34503433 -1.40037804 29.34503433 -1.33460999 27.99935913 C-1.19894328 25.20805356 -1.06815063 22.4165444 -0.9375 19.625 C-0.84602551 17.72524487 -0.75423207 15.82550506 -0.66210938 13.92578125 C-0.43711672 9.28404099 -0.21872454 4.64205676 0 0 Z " fill="#031FDE" transform="translate(29,21)"/>
<path d="M0 0 C14.52 0 29.04 0 44 0 C44 14 44 14 43 16 C34.75 16 26.5 16 18 16 C17.67 18.97 17.34 21.94 17 25 C24.26 25 31.52 25 39 25 C39 36 39 36 38 41 C30.74 41 23.48 41 16 41 C16 43.31 16 45.62 16 48 C15.67 48.66 15.34 49.32 15 50 C23.91 49.67 32.82 49.34 42 49 C42.495 54.445 42.495 54.445 43 60 C52.43633792 40.17204056 61.50431113 20.25043158 70 0 C77.59 0 85.18 0 93 0 C95.04558264 6.66679827 97.09054691 13.33378037 99.1340332 20.0012207 C99.82704609 22.26174362 100.52039606 24.52216323 101.21411133 26.7824707 C105.21935689 39.8334983 109.18003749 52.89344902 113 66 C106.07 66 99.14 66 92 66 C91.01 62.3803125 91.01 62.3803125 90 58.6875 C89.79117188 57.93170654 89.58234375 57.17591309 89.3671875 56.3972168 C88.58704073 53.50765532 88 51.00602113 88 48 C82.06 48.33 76.12 48.66 70 49 C66.535 57.415 66.535 57.415 63 66 C40.89 66 18.78 66 -4 66 C-3.40530322 56.48485153 -2.77946208 46.99732926 -2 37.5 C-1.00182021 25.00515942 -0.45276146 12.52640052 0 0 Z M2 2 C1.79503906 5.09503906 1.59007812 8.19007812 1.37890625 11.37890625 C1.177635 14.39074926 0.97545748 17.40253017 0.77319336 20.41430664 C0.63357409 22.50050647 0.49489068 24.58676916 0.35717773 26.6730957 C0.1585757 29.67937128 -0.04343875 32.6854015 -0.24609375 35.69140625 C-0.3065538 36.61772354 -0.36701385 37.54404083 -0.42930603 38.49842834 C-0.68085992 42.19031372 -0.96821829 45.79919805 -1.54711914 49.45678711 C-2.16203744 54.26773552 -2 59.14991246 -2 64 C11.86 64 25.72 64 40 64 C41.36380344 59.23197052 41.36380344 59.23197052 41 51 C27.635 51.495 27.635 51.495 14 52 C14.33 48.04 14.66 44.08 15 40 C22.26 39.67 29.52 39.34 37 39 C37 35.04 37 31.08 37 27 C30.07 27 23.14 27 16 27 C16.33 23.04 16.66 19.08 17 15 C29.375 14.505 29.375 14.505 42 14 C42 10.04 42 6.08 42 2 C28.8 2 15.6 2 2 2 Z M71 2 C70.22398437 3.73378906 69.44796875 5.46757812 68.6484375 7.25390625 C67.84633839 9.04480535 67.044234 10.83570208 66.24203491 12.6265564 C65.66473799 13.91556364 65.08760946 15.20464632 64.51065063 16.49380493 C61.03537455 24.25846094 57.54387014 32.01528998 54.01953125 39.7578125 C53.37250203 41.18153354 52.72552865 42.60527996 52.07861328 44.02905273 C51.13549974 46.1046356 50.19111879 48.17959049 49.24261475 50.25271606 C48.36028874 52.181327 47.48245711 54.11192616 46.60546875 56.04296875 C46.10168701 57.14664795 45.59790527 58.25032715 45.07885742 59.38745117 C43.87277068 61.8370066 43.87277068 61.8370066 44 64 C49.94 64 55.88 64 62 64 C64.31 58.39 66.62 52.78 69 47 C78.9 46.505 78.9 46.505 89 46 C90.33333333 52 91.66666667 58 93 64 C98.61 64 104.22 64 110 64 C109.32930951 59.3051666 108.70035769 55.56485096 107.32592773 51.15649414 C106.98565048 50.0558815 106.64537323 48.95526886 106.29478455 47.82130432 C105.92809158 46.65437546 105.56139862 45.48744659 105.18359375 44.28515625 C104.61971703 42.46883949 104.61971703 42.46883949 104.04444885 40.61582947 C103.05037414 37.41714807 102.05172409 34.21997108 101.05078125 31.0234375 C100.02800669 27.75316471 99.01134066 24.48099446 97.99414062 21.20898438 C96.00168652 14.80423303 94.00261121 8.40158238 92 2 C85.07 2 78.14 2 71 2 Z " fill="#54586F" transform="translate(350,21)"/>
<path d="M0 0 C6.6 0 13.2 0 20 0 C20.08051402 8.21243014 19.8223186 15.77681402 19 24 C25.93 24 32.86 24 40 24 C40 16.08 40 8.16 40 0 C46.27 0 52.54 0 59 0 C59.04226744 10.61516654 58.93075066 21.20818871 58.62768555 31.81884766 C58.56234606 34.13044605 58.50267908 36.44214643 58.44335938 38.75390625 C58.19680943 47.86427165 57.71809185 56.91221575 57 66 C50.4 66 43.8 66 37 66 C36.88031859 57.26325705 37.3608091 48.70897602 38 40 C31.73 40 25.46 40 19 40 C19 48.58 19 57.16 19 66 C12.07 66 5.14 66 -2 66 C-1.46713251 43.99370632 -0.89041793 21.9952173 0 0 Z M1 2 C0.10795451 32.99474195 0.10795451 32.99474195 0 64 C5.61 64 11.22 64 17 64 C17.33 55.42 17.66 46.84 18 38 C25.26 38 32.52 38 40 38 C39.835 39.505625 39.67 41.01125 39.5 42.5625 C38.83590669 49.72722498 38.93402572 56.80880313 39 64 C44.61 64 50.22 64 56 64 C56.89204549 33.00525805 56.89204549 33.00525805 57 2 C52.05 2 47.1 2 42 2 C42 9.92 42 17.84 42 26 C33.75 26 25.5 26 17 26 C17.33 22.7 17.66 19.4 18 16 C18.0614364 13.45899055 18.08741794 10.9166299 18.0625 8.375 C18.041875 6.27125 18.02125 4.1675 18 2 C12.39 2 6.78 2 1 2 Z " fill="#4E5477" transform="translate(578,21)"/>
<path d="M0 0 C7.59 0 15.18 0 23 0 C28.28 11.55 33.56 23.1 39 35 C39.2888733 24.97816202 39.2888733 24.97816202 39.56811523 14.95605469 C39.60622314 13.70727539 39.64433105 12.45849609 39.68359375 11.171875 C39.72025146 9.8940918 39.75690918 8.61630859 39.79467773 7.29980469 C40 4 40 4 41 0 C46.61 0 52.22 0 58 0 C58.12871658 14.21513678 57.61771843 28.36223129 57 42.5625 C56.9033193 44.84568932 56.80696293 47.1288924 56.7109375 49.41210938 C56.47828546 54.94160662 56.23901001 60.47075951 56 66 C48.41 66 40.82 66 33 66 C27.96061496 54.68348623 22.95066237 43.3555818 18 32 C16.88221239 35.35336284 16.8089562 38.03325011 16.71875 41.56640625 C16.68136719 42.85611328 16.64398438 44.14582031 16.60546875 45.47460938 C16.55178213 47.52430553 16.49970754 49.57403856 16.44775391 51.6237793 C16.39602877 53.60475715 16.3387225 55.58558681 16.28125 57.56640625 C16.23581055 59.34446655 16.23581055 59.34446655 16.18945312 61.15844727 C16 64 16 64 15 66 C9.39 66 3.78 66 -2 66 C-2.13749203 51.97581285 -1.59422227 38.01008616 -1 24 C-0.9033455 21.66407491 -0.80698915 19.32813746 -0.7109375 16.9921875 C-0.47794034 11.3279461 -0.23884379 5.6640098 0 0 Z M2 2 C1.60803981 9.64079136 1.2167243 17.28161521 0.82654572 24.92249775 C0.64534729 28.47040671 0.46386564 32.01830071 0.28173828 35.56616211 C0.07240058 39.64432575 -0.13570803 43.7225513 -0.34375 47.80078125 C-0.40937134 49.07585037 -0.47499268 50.35091949 -0.54260254 51.66462708 C-0.60266479 52.84562485 -0.66272705 54.02662262 -0.72460938 55.2434082 C-0.80455139 56.80560844 -0.80455139 56.80560844 -0.8861084 58.39936829 C-0.96780469 60.26484345 -1 62.13273679 -1 64 C3.95 64 8.9 64 14 64 C14.91666412 54.8409977 15.32117193 45.72291931 15.60546875 36.52539062 C15.64285156 35.45353516 15.68023437 34.38167969 15.71875 33.27734375 C15.76418945 31.82702759 15.76418945 31.82702759 15.81054688 30.34741211 C16 28 16 28 17 26 C22.61 38.54 28.22 51.08 34 64 C40.93 64 47.86 64 55 64 C55.28733691 56.77760327 55.57208206 49.55511059 55.85449219 42.33251953 C55.95079582 39.87871585 56.04779074 37.4249392 56.14550781 34.97119141 C56.28635273 31.43138506 56.42465925 27.89148695 56.5625 24.3515625 C56.60624756 23.26573883 56.64999512 22.17991516 56.69506836 21.06118774 C56.93984206 14.70168877 57.04115918 8.36423857 57 2 C52.05 2 47.1 2 42 2 C41.34 15.2 40.68 28.4 40 42 C32.125 24.25 32.125 24.25 29.64892578 18.66503906 C28.99779538 17.19853484 28.34659563 15.7320614 27.6953125 14.265625 C27.36007568 13.50878418 27.02483887 12.75194336 26.67944336 11.97216797 C26.35484131 11.24175293 26.03023926 10.51133789 25.69580078 9.75878906 C25.41600372 9.12813538 25.13620667 8.49748169 24.84793091 7.84771729 C23.943641 5.87718871 22.96961055 3.9392211 22 2 C15.4 2 8.8 2 2 2 Z " fill="#55586E" transform="translate(237,21)"/>
<path d="M0 0 C4.83801979 -0.07463717 9.67569804 -0.12883014 14.51416016 -0.16479492 C16.15712326 -0.17980136 17.80004686 -0.20021312 19.44287109 -0.22631836 C21.81618042 -0.26306359 24.18895625 -0.27980772 26.5625 -0.29296875 C27.28679199 -0.30845261 28.01108398 -0.32393646 28.75732422 -0.33988953 C34.40277573 -0.34171666 40.23752339 0.50443414 44.56835938 4.41682434 C49.31194574 9.90196613 49.34719977 14.72523381 49.27734375 21.6953125 C48.84119911 26.89219086 47.42040542 30.92789682 43.3984375 34.37109375 C41.75 35.5 41.75 35.5 39 37 C39.54238803 43.29342303 41.62308603 48.51941846 44.0625 54.3125 C44.80635618 56.09902638 45.54738997 57.88673138 46.28515625 59.67578125 C46.61394775 60.45864502 46.94273926 61.24150879 47.28149414 62.0480957 C48 64 48 64 48 66 C41.4 66 34.8 66 28 66 C26.57340264 61.05276416 25.14840772 56.10512586 23.72753906 51.15625 C23.24346359 49.47205722 22.75844114 47.78813634 22.27246094 46.10449219 C21.57499359 43.68755432 20.88091271 41.26966629 20.1875 38.8515625 C19.96876221 38.0963028 19.75002441 37.34104309 19.5246582 36.56289673 C18 31.22774341 18 31.22774341 18 29 C19.98567708 28.77213542 21.97135417 28.54427083 23.95703125 28.31640625 C26.19396393 28.02829265 26.19396393 28.02829265 29 27 C29.08096803 25.54257537 29.13917774 24.08387193 29.1875 22.625 C29.22230469 21.81289063 29.25710938 21.00078125 29.29296875 20.1640625 C29.19628906 19.44992188 29.09960938 18.73578125 29 18 C25.96474514 15.97649676 24.80573798 15.67875982 21.3125 15.375 C19.15625 15.1875 19.15625 15.1875 17 15 C17.00580078 16.01763428 17.01160156 17.03526855 17.01757812 18.08374023 C17.05903119 28.75320081 16.84423815 39.39920344 16.5 50.0625 C16.45158347 51.62303946 16.40340553 53.18358635 16.35546875 54.74414062 C16.24014296 58.49620558 16.11999319 62.24807009 16 66 C9.73 66 3.46 66 -3 66 C-2 44 -1 22 0 0 Z M1 2 C0.97494385 3.09352783 0.9498877 4.18705566 0.92407227 5.3137207 C0.82900546 9.4196088 0.72903852 13.52536618 0.62768555 17.63110352 C0.58470805 19.39897578 0.54301177 21.16687972 0.50268555 22.93481445 C0.30464781 31.58246238 0.10515282 40.17927004 -0.79272461 48.78833008 C-1.0867496 51.92563561 -1.09635931 55.03858391 -1.0625 58.1875 C-1.041875 60.105625 -1.02125 62.02375 -1 64 C3.95 64 8.9 64 14 64 C14.66 47.5 15.32 31 16 14 C28 15 28 15 31 18 C31.36298084 21.13070979 30.92528704 23.99421906 30 27 C27.23746802 29.38921685 24.56643974 30.3395482 21 31 C21.73044862 38.00613394 23.69566109 44.66142926 25.5625 51.4375 C25.89185547 52.64599609 26.22121094 53.85449219 26.56054688 55.09960938 C27.36995257 58.06743025 28.18447014 61.03385615 29 64 C34.28 64 39.56 64 45 64 C44.32472906 59.94837436 43.86708465 57.23333826 42.40625 53.6171875 C42.09816406 52.84246094 41.79007812 52.06773438 41.47265625 51.26953125 C41.15167969 50.47933594 40.83070313 49.68914062 40.5 48.875 C39.86239195 47.28994225 39.22689829 45.70403196 38.59375 44.1171875 C38.17125977 43.07473877 38.17125977 43.07473877 37.74023438 42.01123047 C37.00953201 40.02589865 36.47337932 38.06035462 36 36 C36.721875 35.79375 37.44375 35.5875 38.1875 35.375 C42.74537391 33.14670609 45.19234844 29.73068192 47.3125 25.1875 C48.51706564 19.60269568 49.06351387 14.40769776 46.375 9.1875 C43.58986463 5.44955516 40.82567877 2.49667012 36.03668213 1.65490723 C33.78681517 1.53890993 31.57234017 1.54964261 29.3203125 1.609375 C28.50754852 1.61503479 27.69478455 1.62069458 26.85739136 1.62652588 C24.27931055 1.64879162 21.70265569 1.69896685 19.125 1.75 C17.36981184 1.7700778 15.61460174 1.78832633 13.859375 1.8046875 C9.57237311 1.84862388 5.28642773 1.91758089 1 2 Z " fill="#505574" transform="translate(468,21)"/>
<path d="M0 0 C7.59 0 15.18 0 23 0 C23.78310547 2.62195313 23.78310547 2.62195313 24.58203125 5.296875 C30.64183448 25.55572463 36.80494927 45.78213352 43 66 C36.07 66 29.14 66 22 66 C18 52.5 18 52.5 18 48 C12.06 48.33 6.12 48.66 0 49 C-2.31 54.61 -4.62 60.22 -7 66 C-14.26 66 -21.52 66 -29 66 C-26.75057779 59.25173337 -26.75057779 59.25173337 -25.26342773 56.07202148 C-24.93198257 55.3587973 -24.60053741 54.64557312 -24.25904846 53.91073608 C-23.90414841 53.15515411 -23.54924835 52.39957214 -23.18359375 51.62109375 C-22.41517412 49.96949531 -21.64678326 48.31788348 -20.87841797 46.66625977 C-20.47894958 45.81073517 -20.0794812 44.95521057 -19.66790771 44.07376099 C-12.85711541 29.48101599 -6.21902308 14.85655514 0 0 Z M1 2 C-0.19496094 4.65546875 -1.38992187 7.3109375 -2.62109375 10.046875 C-9.81054687 26.0234375 -9.81054687 26.0234375 -10.99624634 28.65783691 C-11.78903083 30.41990624 -12.58132675 32.18219546 -13.37313843 33.94470215 C-15.43927011 38.54200715 -17.51483366 43.13470578 -19.60595703 47.72070312 C-20.02402115 48.64071106 -20.44208527 49.56071899 -20.87281799 50.50860596 C-21.67424827 52.27167071 -22.47860758 54.03340768 -23.28623962 55.79364014 C-23.82142967 56.97328339 -23.82142967 56.97328339 -24.36743164 58.17675781 C-24.68361954 58.86892395 -24.99980743 59.56109009 -25.32557678 60.27423096 C-26.1213295 62.00165623 -26.1213295 62.00165623 -26 64 C-20.06 64 -14.12 64 -8 64 C-5.69 58.39 -3.38 52.78 -1 47 C8.9 46.505 8.9 46.505 19 46 C19.495 48.97 19.495 48.97 20 52 C20.50010337 54.12997394 21.02078055 56.25522822 21.5625 58.375 C22.036875 60.23125 22.51125 62.0875 23 64 C28.61 64 34.22 64 40 64 C38.64794855 57.57765458 36.99037257 51.33905703 35.06640625 45.06640625 C34.78780258 44.14842758 34.50919891 43.23044891 34.22215271 42.28465271 C33.33873366 39.3763049 32.45073365 36.46938056 31.5625 33.5625 C30.97039181 31.61663116 30.37859232 29.67066836 29.78710938 27.72460938 C28.69406941 24.12904648 27.59895688 20.53412705 26.50219727 16.93969727 C24.98892847 11.96359334 23.49452927 6.98176424 22 2 C15.07 2 8.14 2 1 2 Z " fill="#595B69" transform="translate(75,21)"/>
<path d="M0 0 C0.495 7.92 0.495 7.92 1 16 C-0.134375 15.89300781 -1.26875 15.78601563 -2.4375 15.67578125 C-13.61807691 14.48395756 -13.61807691 14.48395756 -24 18 C-28.47981146 22.47981146 -30.28573006 27.14656416 -30.3125 33.4375 C-30.22023285 38.00779936 -29.68127955 41.16960064 -27 45 C-22.83429134 48.77517347 -19.03431938 49.21249439 -13.62890625 49.16796875 C-9.00088558 48.87227055 -4.5412057 47.91973786 0 47 C-0.66 52.61 -1.32 58.22 -2 64 C-15.13803012 67.28450753 -26.29487074 67.32700062 -38.27734375 60.75 C-44.44812562 56.7050927 -47.30666414 51.04765085 -49.61328125 44.171875 C-51.63411699 32.82253488 -50.2942167 21.29328945 -44.5 11.3125 C-39.84773769 4.78544541 -32.16689197 -0.30852224 -24.22265625 -1.79296875 C-15.84566602 -2.57325079 -8.11786961 -2.20145616 0 0 Z M-43 12 C-48.95524354 20.7051152 -49.95584276 30.76020085 -48.60546875 40.98828125 C-46.91939607 49.54917929 -43.13896321 55.27010735 -36.0625 60.40625 C-31.63018063 63.08092548 -27.73937923 64.12505677 -22.62890625 64.1328125 C-21.80712891 64.13410156 -20.98535156 64.13539062 -20.13867188 64.13671875 C-19.28853516 64.13285156 -18.43839844 64.12898438 -17.5625 64.125 C-16.2930957 64.13080078 -16.2930957 64.13080078 -14.99804688 64.13671875 C-14.17498047 64.13542969 -13.35191406 64.13414063 -12.50390625 64.1328125 C-11.75955322 64.13168457 -11.0152002 64.13055664 -10.24829102 64.12939453 C-7.51961386 64.02477997 -7.51961386 64.02477997 -3 63 C-2.67 58.38 -2.34 53.76 -2 49 C-4.97 49.495 -4.97 49.495 -8 50 C-10.35162165 50.13755267 -12.70705966 50.21924343 -15.0625 50.25 C-16.84333984 50.28867188 -16.84333984 50.28867188 -18.66015625 50.328125 C-22.96917823 49.90478249 -25.3970827 48.30608076 -28.6875 45.625 C-32.28475857 41.1712513 -32.43078127 36.2778427 -32.3125 30.78515625 C-31.66283412 24.99500911 -29.26382763 20.83818259 -24.875 17.0625 C-21.37082157 14.54863287 -19.86037536 13.87426416 -15.6484375 13.90234375 C-14.37226562 13.90717773 -14.37226562 13.90717773 -13.0703125 13.91210938 C-12.18085937 13.92048828 -11.29140625 13.92886719 -10.375 13.9375 C-9.4778125 13.94201172 -8.580625 13.94652344 -7.65625 13.95117188 C-5.43747169 13.96297389 -3.21872757 13.98090961 -1 14 C-1 10.04 -1 6.08 -1 2 C-16.19181821 -3.97162666 -32.26563991 -0.02950783 -43 12 Z " fill="#585A6A" transform="translate(570,22)"/>
<path d="M0 0 C7.59 0 15.18 0 23 0 C25.04558264 6.66679827 27.09054691 13.33378037 29.1340332 20.0012207 C29.82704609 22.26174362 30.52039606 24.52216323 31.21411133 26.7824707 C35.21935689 39.8334983 39.18003749 52.89344902 43 66 C36.07 66 29.14 66 22 66 C21.34 63.586875 20.68 61.17375 20 58.6875 C19.79117188 57.93170654 19.58234375 57.17591309 19.3671875 56.3972168 C18.58704073 53.50765532 18 51.00602113 18 48 C12.06 48.33 6.12 48.66 0 49 C-2.31 54.61 -4.62 60.22 -7 66 C-14.59 66 -22.18 66 -30 66 C-28 64 -28 64 -25.93701172 63.86474609 C-25.10959473 63.91711426 -24.28217773 63.96948242 -23.4296875 64.0234375 C-22.08583984 64.10078125 -22.08583984 64.10078125 -20.71484375 64.1796875 C-19.77769531 64.24414062 -18.84054687 64.30859375 -17.875 64.375 C-16.45767578 64.46007812 -16.45767578 64.46007812 -15.01171875 64.546875 C-12.67373519 64.68857097 -10.33679056 64.83999783 -8 65 C-7.8865625 64.31421875 -7.773125 63.6284375 -7.65625 62.921875 C-6.89832017 59.54728264 -5.75402727 56.47255845 -4.5 53.25 C-4.0565625 52.10015625 -3.613125 50.9503125 -3.15625 49.765625 C-2 47 -2 47 -1 46 C0.4887186 45.91330568 1.981445 45.89296506 3.47265625 45.90234375 C4.37177734 45.90556641 5.27089844 45.90878906 6.19726562 45.91210938 C7.61555664 45.92467773 7.61555664 45.92467773 9.0625 45.9375 C10.01189453 45.94201172 10.96128906 45.94652344 11.93945312 45.95117188 C14.29303065 45.9629989 16.64648477 45.97947975 19 46 C21.15353707 52.10127247 22.48713585 57.53791169 23 64 C28.61 64 34.22 64 40 64 C39.45472656 62.22842529 38.90945313 60.45685059 38.34765625 58.6315918 C36.54806567 52.78128797 34.75234768 46.92980669 32.95927429 41.07750225 C31.87187963 37.52892713 30.7829306 33.9808446 29.69042969 30.43383789 C28.63637935 27.01146518 27.58641175 23.58786458 26.53927612 20.16337013 C26.13883953 18.85637563 25.73692804 17.54983207 25.33352661 16.24374962 C24.76924251 14.41589332 24.21066068 12.58627958 23.65234375 10.7565918 C23.33257568 9.71512497 23.01280762 8.67365814 22.68334961 7.60063171 C22 5 22 5 22 2 C15.07 2 8.14 2 1 2 C0.01 4.97 -0.98 7.94 -2 11 C-3.18368082 13.84722329 -4.38854479 16.66238025 -5.65234375 19.47265625 C-5.99374893 20.24000595 -6.33515411 21.00735565 -6.68690491 21.79795837 C-7.40346746 23.40630914 -8.12203157 25.01376956 -8.8425293 26.62036133 C-9.93548572 29.0580075 -11.02196374 31.49846016 -12.10742188 33.93945312 C-12.80951803 35.51318944 -13.51197977 37.08676271 -14.21484375 38.66015625 C-14.53476791 39.37808853 -14.85469208 40.09602081 -15.18431091 40.83570862 C-17.33415299 45.6230689 -19.62715272 50.31902244 -22 55 C-22.66 54.67 -23.32 54.34 -24 54 C-23.52167725 52.96818604 -23.04335449 51.93637207 -22.55053711 50.87329102 C-20.73719171 46.95910286 -18.92863005 43.04271873 -17.12133789 39.12573242 C-16.34590146 37.44676622 -15.56925378 35.76835878 -14.79125977 34.09057617 C-9.57165901 22.83148909 -4.65090329 11.5068165 0 0 Z " fill="#55586E" transform="translate(420,21)"/>
<path d="M0 0 C0.99250545 5.70690634 1.10477512 11.21408489 1 17 C0.12988281 16.7834375 0.12988281 16.7834375 -0.7578125 16.5625 C-8.46033189 14.4870912 -8.46033189 14.4870912 -16 16 C-15.79443629 21.24978097 -14.06961815 23.41235222 -10.4375 26.85546875 C-9.839375 27.39816406 -9.24125 27.94085938 -8.625 28.5 C-3.7176838 33.01087362 0.40506718 36.84713563 1.3984375 43.78125 C1.33723507 50.88073213 0.38072 55.07511542 -4.1875 60.6875 C-11.69132939 66.85731528 -19.65572587 66.65116893 -29 66 C-36.13884007 64.86115993 -36.13884007 64.86115993 -38 63 C-38.23701239 60.14122091 -38.42219182 57.30116703 -38.5625 54.4375 C-38.62727539 53.22803711 -38.62727539 53.22803711 -38.69335938 51.99414062 C-38.79975262 49.99631195 -38.90040888 47.9981793 -39 46 C-36.24094947 46.51558015 -33.76647016 47.08630451 -31.125 48.0625 C-27.05808132 49.2825756 -22.9071292 49.9535646 -19 48 C-19.49056144 43.47235918 -21.06112405 41.42908579 -24.1875 38.1875 C-31.52112559 30.35093039 -36.4607927 24.91991054 -36.34375 13.859375 C-35.62577921 7.88716343 -32.55350568 4.26222336 -28 0.5625 C-19.34408348 -3.94578985 -9.08458701 -2.3828425 0 0 Z M-31 5 C-35.09956616 10.64293225 -34.96177374 16.26758383 -34 23 C-31.34500868 29.51679688 -25.97366708 34.29029553 -20.953125 39.0546875 C-18.46228184 41.53556729 -17.0416303 43.10494847 -16.875 46.6875 C-16.91625 47.450625 -16.9575 48.21375 -17 49 C-22.03799182 51.51899591 -29.49295583 50.40187844 -34.75 49 C-35.4925 48.67 -36.235 48.34 -37 48 C-37.02715383 49.74991334 -37.04646551 51.49994945 -37.0625 53.25 C-37.07410156 54.22453125 -37.08570313 55.1990625 -37.09765625 56.203125 C-37.01195577 58.65758678 -36.70706066 60.66168914 -36 63 C-31.69957953 64.20101291 -27.62720375 64.22114734 -23.1875 64.25 C-22.40568359 64.270625 -21.62386719 64.29125 -20.81835938 64.3125 C-14.84969249 64.35239084 -10.02462581 63.53321063 -5.29296875 59.5703125 C-1.04910438 54.02179725 0.61842394 50.05003296 0 43 C-1.85958948 38.66483203 -4.09541024 35.49072864 -7.3125 32.0625 C-8.10011719 31.20398438 -8.88773437 30.34546875 -9.69921875 29.4609375 C-11.10692078 27.95524602 -12.52402604 26.45819264 -13.95703125 24.9765625 C-18.01359764 20.62549129 -18.01359764 20.62549129 -17.9375 17.125 C-17 15 -17 15 -16 14 C-13.46950598 13.92686433 -10.96695163 13.90752473 -8.4375 13.9375 C-7.72658203 13.94201172 -7.01566406 13.94652344 -6.28320312 13.95117188 C-4.52209987 13.96299136 -2.76103964 13.98092737 -1 14 C-1 10.04 -1 6.08 -1 2 C-9.91360541 -1.56544216 -23.85479281 -2.82110517 -31 5 Z " fill="#57596B" transform="translate(338,22)"/>
<path d="M0 0 C0.495 8.415 0.495 8.415 1 17 C-1.2584375 16.4740625 -1.2584375 16.4740625 -3.5625 15.9375 C-8.10598653 15.0132915 -11.4925129 15.0201115 -16 16 C-16.33 16.99 -16.66 17.98 -17 19 C-15.84354899 20.83577501 -15.84354899 20.83577501 -14.0625 22.625 C-13.41925781 23.32753906 -12.77601563 24.03007813 -12.11328125 24.75390625 C-10.6943371 26.26202619 -9.27506159 27.76983441 -7.85546875 29.27734375 C-2.81294327 34.75021463 0.54564069 38.83503967 1.375 46.4375 C0.61633154 53.64485042 -1.38890204 58.10076208 -6.98828125 62.7734375 C-15.0183299 67.66942833 -25.48214465 66.97305824 -34.375 65 C-35.57125 64.67 -36.7675 64.34 -38 64 C-38.77040851 57.93303301 -39.09706112 52.11485027 -39 46 C-38.28714844 46.2165625 -37.57429688 46.433125 -36.83984375 46.65625 C-27.90991301 49.57174941 -27.90991301 49.57174941 -19 48 C-19.3454097 42.6905594 -22.24622269 40.19548779 -25.8125 36.625 C-30.80090097 31.59447743 -35.36727851 26.94985694 -36.53125 19.68359375 C-36.42516839 8.66436668 -36.42516839 8.66436668 -32 4 C-23.26556847 -4.49836581 -10.86048778 -2.84865253 0 0 Z M-32.35546875 6.57421875 C-35.36917928 10.98678467 -35.97909891 15.78695987 -35 21 C-33.14874846 25.37725832 -30.86650041 28.54829991 -27.625 32 C-26.83480469 32.86109375 -26.04460937 33.7221875 -25.23046875 34.609375 C-23.92978945 36.00344809 -22.62288466 37.39185318 -21.30078125 38.765625 C-18.91912773 41.35882941 -18.02728676 42.75896691 -17.625 46.3125 C-18 49 -18 49 -19 50 C-21.08135137 50.0999519 -23.16625528 50.12967207 -25.25 50.125 C-26.95929688 50.12886719 -26.95929688 50.12886719 -28.703125 50.1328125 C-32 50 -32 50 -37 49 C-37 53.29 -37 57.58 -37 62 C-31.70734623 64.11706151 -28.18292878 64.3663964 -22.625 64.375 C-21.8 64.39949219 -20.975 64.42398438 -20.125 64.44921875 C-14.22415115 64.47731803 -10.84559223 63.39191456 -6 60 C-1.25831811 55.0087559 -0.49712691 50.37157469 -0.60546875 43.64453125 C-1.83093028 35.43029902 -9.08013132 29.72598029 -14.92578125 24.45703125 C-17.36818591 21.56386265 -17.89082528 19.75872958 -18 16 C-16 14 -16 14 -13.79296875 13.76953125 C-12.93316406 13.78371094 -12.07335937 13.79789063 -11.1875 13.8125 C-10.33542969 13.81894531 -9.48335937 13.82539062 -8.60546875 13.83203125 C-6 14 -6 14 -1 15 C-1 10.71 -1 6.42 -1 2 C-11.39269758 -2.15707903 -24.63045837 -2.39747918 -32.35546875 6.57421875 Z " fill="#595B69" transform="translate(157,22)"/>
<path d="M0 0 C8.06913558 6.63462259 12.28904227 13.14257489 13.625 23.5 C14.36649361 34.62240417 12.27222431 44.70592799 5.4375 53.5625 C-1.92101257 61.27141793 -10.21709213 63.44326288 -20.625 63.75 C-30.36910078 63.51425563 -38.308218 61.18284407 -45.46484375 54.37890625 C-52.94145128 45.41036797 -53.88505628 35.51297697 -53.37109375 24.30859375 C-52.93708975 19.58995447 -51.31379611 15.50172579 -49.1875 11.3125 C-48.86007813 10.65894531 -48.53265625 10.00539063 -48.1953125 9.33203125 C-44.22275371 2.76426069 -36.51309195 -1.96734507 -29.25 -4.125 C-18.96945369 -6.01712509 -9.23354495 -4.88834733 0 0 Z M-46.57421875 9.921875 C-50.80825147 16.19603487 -51.67061796 22.30788025 -51.5625 29.75 C-51.57410156 30.54470703 -51.58570313 31.33941406 -51.59765625 32.15820312 C-51.55429376 41.04028704 -49.27689349 48.08588682 -43.15234375 54.5859375 C-34.65471231 62.05304107 -23.95926847 61.96358809 -13.21386719 61.48291016 C-5.56089027 60.83932246 -0.00713808 57.12738302 5.12109375 51.60546875 C7.90485709 47.83163715 9.41540058 43.75638121 10.8125 39.3125 C11.1425 38.3225 11.4725 37.3325 11.8125 36.3125 C12.61629074 24.70365346 12.12300786 15.31173939 4.5 5.9375 C-0.68718164 0.42751092 -6.17790476 -2.45963229 -13.76171875 -2.890625 C-27.70464039 -3.15478528 -36.84354921 -0.72593811 -46.57421875 9.921875 Z " fill="#56596C" transform="translate(216.1875,24.6875)"/>
<path d="M0 0 C6.27 0 12.54 0 19 0 C19.09673961 10.44787742 18.95058335 20.86894751 18.625 31.3125 C18.59414307 32.47942383 18.56328613 33.64634766 18.53149414 34.84863281 C17.78735304 56.72421524 17.78735304 56.72421524 11.74609375 62.6640625 C4.99900144 67.82626735 -2.79226928 67.7479007 -11 67 C-14.75195598 66.22280912 -18.36984492 65.22217646 -22 64 C-22.91657981 58.61509359 -23.11138159 53.45769811 -23 48 C-22.43152344 48.144375 -21.86304688 48.28875 -21.27734375 48.4375 C-16.46015876 49.59555449 -11.97831338 50.58568393 -7 50 C-4.14003947 48.0431849 -3.18195426 46.82149182 -2.43188477 43.43505859 C-1.89683044 39.17942581 -1.66065526 34.94697615 -1.46484375 30.6640625 C-1.40037804 29.34503433 -1.40037804 29.34503433 -1.33460999 27.99935913 C-1.19894328 25.20805356 -1.06815063 22.4165444 -0.9375 19.625 C-0.84602551 17.72524487 -0.75423207 15.82550506 -0.66210938 13.92578125 C-0.43711672 9.28404099 -0.21872454 4.64205676 0 0 Z M1 2 C0.95101563 4.32675781 0.90203125 6.65351563 0.8515625 9.05078125 C0.79732451 11.34128442 0.7401075 13.63169555 0.68261719 15.92211914 C0.64468216 17.49594061 0.60977234 19.06983837 0.578125 20.64379883 C0.11161008 43.56863362 0.11161008 43.56863362 -4 50.25 C-9.47233727 53.44219674 -15.12698871 51.46825282 -21 50 C-21 54.29 -21 58.58 -21 63 C-12.43200952 65.83323988 -1.85361911 66.94584591 6.84375 64.0546875 C11.79630844 61.11641589 14.19068553 57.42794341 16 52 C16.24482348 49.59710288 16.42898748 47.22230501 16.5625 44.8125 C16.62618774 43.68835693 16.62618774 43.68835693 16.69116211 42.54150391 C17.34233452 29.04900184 17.07456304 15.50419492 17 2 C11.72 2 6.44 2 1 2 Z " fill="#55586E" transform="translate(29,21)"/>
<path d="M0 0 C7.26 0 14.52 0 22 0 C22 4.95 22 9.9 22 15 C14.74 15 7.48 15 0 15 C0 17.31 0 19.62 0 22 C-0.33 22.66 -0.66 23.32 -1 24 C7.91 23.67 16.82 23.34 26 23 C26.495 28.445 26.495 28.445 27 34 C27.99 32.35 28.98 30.7 30 29 C30.495 30.485 30.495 30.485 31 32 C30.01 33.98 29.02 35.96 28 38 C33.94 38 39.88 38 46 38 C46 38.33 46 38.66 46 39 C45.37432129 38.99476318 44.74864258 38.98952637 44.10400391 38.98413086 C41.27767943 38.96338382 38.45137095 38.95034714 35.625 38.9375 C34.64015625 38.92912109 33.6553125 38.92074219 32.640625 38.91210938 C31.69960938 38.90888672 30.75859375 38.90566406 29.7890625 38.90234375 C28.91975098 38.89710693 28.05043945 38.89187012 27.15478516 38.88647461 C24.94950006 38.85877649 24.94950006 38.85877649 23 40 C21.64050723 40.06096679 20.2778458 40.05838507 18.91748047 40.02172852 C18.07675995 40.00163223 17.23603943 39.98153595 16.36984253 39.96083069 C15.00727829 39.92027809 15.00727829 39.92027809 13.6171875 39.87890625 C12.68778351 39.85529526 11.75837952 39.83168427 10.80081177 39.80735779 C7.82538894 39.7306391 4.85022104 39.64665009 1.875 39.5625 C-0.13931034 39.50928753 -2.15363322 39.45654708 -4.16796875 39.40429688 C-9.11214132 39.27501284 -14.05609727 39.13920707 -19 39 C-18.67 37.68 -18.34 36.36 -18 35 C-18 35.99 -18 36.98 -18 38 C-4.14 38 9.72 38 24 38 C24.33 33.71 24.66 29.42 25 25 C24.06027344 25.16371094 23.12054688 25.32742187 22.15234375 25.49609375 C17.2936246 26.19019649 12.46065789 26.10834309 7.5625 26.0625 C6.64017578 26.05798828 5.71785156 26.05347656 4.76757812 26.04882812 C2.51164952 26.03713938 0.25586033 26.02075455 -2 26 C-2.02686553 24.02090602 -2.04633375 22.04171029 -2.0625 20.0625 C-2.07410156 18.96035156 -2.08570313 17.85820313 -2.09765625 16.72265625 C-2 14 -2 14 -1 13 C0.63472882 12.91299658 2.27314055 12.89298937 3.91015625 12.90234375 C5.39418945 12.90717773 5.39418945 12.90717773 6.90820312 12.91210938 C7.94912109 12.92048828 8.99003906 12.92886719 10.0625 12.9375 C11.62967773 12.94426758 11.62967773 12.94426758 13.22851562 12.95117188 C15.81903454 12.96300073 18.40952422 12.98093681 21 13 C21 9.04 21 5.08 21 1 C14.07 1 7.14 1 0 1 C0 0.67 0 0.34 0 0 Z " fill="#444D85" transform="translate(366,47)"/>
<path d="M0 0 C6.6 0 13.2 0 20 0 C20.08051402 8.21243014 19.8223186 15.77681402 19 24 C26.26 24 33.52 24 41 24 C41 24.33 41 24.66 41 25 C33.41 25 25.82 25 18 25 C18 17.41 18 9.82 18 2 C12.39 2 6.78 2 1 2 C1.01160156 4.54847656 1.02320313 7.09695312 1.03515625 9.72265625 C1.09886481 27.8442844 1.08155332 45.90329529 0 64 C8.415 63.505 8.415 63.505 17 63 C17.33 58.71 17.66 54.42 18 50 C18.33 50 18.66 50 19 50 C19 55.28 19 60.56 19 66 C12.07 66 5.14 66 -2 66 C-1.46713251 43.99370632 -0.89041793 21.9952173 0 0 Z " fill="#56596C" transform="translate(578,21)"/>
<path d="M0 0 C4.7713083 2.08202544 7.22953975 4.93110169 9.30859375 9.59375 C11.23994495 16.31528863 10.85615577 23.88747718 8.05859375 30.3125 C5.8513638 33.8310363 2.70135481 36.1493226 -1 38 C-5.51929654 38.41593526 -9.64787033 38.55848834 -13.875 36.8125 C-18.54648055 32.82800188 -21.54377842 28.54897948 -22.3359375 22.38671875 C-22.45629928 14.06971947 -20.77803183 8.52304845 -14.9375 2.5 C-10.38481702 -1.09112493 -5.53289432 -0.95279449 0 0 Z M-14 4 C-19.51897522 9.82558496 -20.46597556 15.24661823 -20.3125 23.0546875 C-19.71313751 28.70367894 -17.50249114 31.69784101 -13.1875 35.4375 C-8.36109012 37.8033872 -4.93782235 37.62010315 0.125 36 C4.95002575 32.64346035 7.87755771 27.77421341 9 22 C9.43003433 16.4095537 8.71528619 11.88751514 6 7 C2.94790843 3.66399294 0.42094292 1.80303934 -4 1 C-8.40667793 1 -10.38459918 1.53495399 -14 4 Z " fill="#575A6B" transform="translate(202,35)"/>
<path d="M0 0 C4.83801979 -0.07463717 9.67569804 -0.12883014 14.51416016 -0.16479492 C16.15712326 -0.17980136 17.80004686 -0.20021312 19.44287109 -0.22631836 C21.81618042 -0.26306359 24.18895625 -0.27980772 26.5625 -0.29296875 C27.28679199 -0.30845261 28.01108398 -0.32393646 28.75732422 -0.33988953 C34.40277573 -0.34171666 40.23752339 0.50443414 44.56835938 4.41682434 C49.31194574 9.90196613 49.34719977 14.72523381 49.27734375 21.6953125 C48.84119911 26.89219086 47.42040542 30.92789682 43.3984375 34.37109375 C41.75 35.5 41.75 35.5 39 37 C39.43202482 43.19235577 41.61925644 48.32316914 44.0390625 54.01171875 C45.0398873 57.12403979 44.92215974 58.01443751 44 61 C42.65574747 57.58752916 41.32652831 54.16939561 40 50.75 C39.6184375 49.78191406 39.236875 48.81382813 38.84375 47.81640625 C38.30234375 46.41455078 38.30234375 46.41455078 37.75 44.984375 C37.41484375 44.12553711 37.0796875 43.26669922 36.734375 42.38183594 C36 40 36 40 36 36 C37.98600337 34.6459068 39.98817543 33.31542376 42 32 C46.64211416 25.97779785 47.9107715 20.50121528 47 13 C45.66870561 9.230411 43.7605388 6.58502985 40.5625 4.125 C35.60595158 1.94895435 30.64030488 1.81198986 25.29296875 1.68359375 C24.56757401 1.66281265 23.84217926 1.64203156 23.09480286 1.62062073 C20.79245887 1.55557785 18.49000718 1.49645227 16.1875 1.4375 C14.62043186 1.39427165 13.05337435 1.35065602 11.48632812 1.30664062 C7.65766064 1.19994332 3.8288855 1.09855031 0 1 C0 0.67 0 0.34 0 0 Z " fill="#5D5D63" transform="translate(468,21)"/>
<path d="M0 0 C6.6 0 13.2 0 20 0 C24 13.5 24 13.5 24 18 C29.94 17.67 35.88 17.34 42 17 C42 17.66 42 18.32 42 19 C35.73 19 29.46 19 23 19 C19 6.5 19 6.5 19 2 C13.06 2.33 7.12 2.66 1 3 C-0.93241047 7.89035869 -0.93241047 7.89035869 -2.85913086 12.78295898 C-4.88888889 17.88888889 -4.88888889 17.88888889 -6 19 C-7.4887186 19.08669432 -8.981445 19.10703494 -10.47265625 19.09765625 C-11.37177734 19.09443359 -12.27089844 19.09121094 -13.19726562 19.08789062 C-14.14279297 19.07951172 -15.08832031 19.07113281 -16.0625 19.0625 C-17.01189453 19.05798828 -17.96128906 19.05347656 -18.93945312 19.04882812 C-21.29303065 19.0370011 -23.64648477 19.02052025 -26 19 C-25.67 18.34 -25.34 17.68 -25 17 C-19.06 17.33 -13.12 17.66 -7 18 C-6.5875 16.515 -6.175 15.03 -5.75 13.5 C-4.35367197 8.47321911 -2.45246285 4.90492569 0 0 Z " fill="#484F7F" transform="translate(74,67)"/>
<path d="M0 0 C7.26 0 14.52 0 22 0 C22 4.95 22 9.9 22 15 C14.74 15 7.48 15 0 15 C0 17.31 0 19.62 0 22 C-0.33 22.66 -0.66 23.32 -1 24 C1.64 24 4.28 24 7 24 C7 24.33 7 24.66 7 25 C4.03 25 1.06 25 -2 25 C-2.02687279 23.18757948 -2.04633715 21.37504767 -2.0625 19.5625 C-2.07410156 18.55316406 -2.08570313 17.54382813 -2.09765625 16.50390625 C-2 14 -2 14 -1 13 C0.63472882 12.91299658 2.27314055 12.89298937 3.91015625 12.90234375 C4.89951172 12.90556641 5.88886719 12.90878906 6.90820312 12.91210938 C7.94912109 12.92048828 8.99003906 12.92886719 10.0625 12.9375 C11.62967773 12.94426758 11.62967773 12.94426758 13.22851562 12.95117188 C15.81903454 12.96300073 18.40952422 12.98093681 21 13 C21 9.04 21 5.08 21 1 C14.07 1 7.14 1 0 1 C0 0.67 0 0.34 0 0 Z " fill="#4C527A" transform="translate(366,47)"/>
<path d="M0 0 C7.26 0 14.52 0 22 0 C22 11 22 11 21 16 C20.67 16 20.34 16 20 16 C20 11.38 20 6.76 20 2 C13.73 2 7.46 2 1 2 C1.020625 3.381875 1.04125 4.76375 1.0625 6.1875 C1.07153823 12.4871485 0.55050443 18.72818164 0 25 C-0.33 25 -0.66 25 -1 25 C-1.02718316 22.14576808 -1.04692705 19.29179985 -1.0625 16.4375 C-1.07087891 15.63763672 -1.07925781 14.83777344 -1.08789062 14.01367188 C-1.09111328 13.22412109 -1.09433594 12.43457031 -1.09765625 11.62109375 C-1.10289307 10.9036499 -1.10812988 10.18620605 -1.11352539 9.44702148 C-0.96657926 6.2796213 -0.44841983 3.13893879 0 0 Z " fill="#464D83" transform="translate(596,59)"/>
<path d="M0 0 C0.66 0 1.32 0 2 0 C2.67449966 2.39387157 3.33976641 4.78969221 4 7.1875 C4.19078125 7.86103516 4.3815625 8.53457031 4.578125 9.22851562 C5.62288591 13.0530868 6 15.96876157 6 20 C1.71 20 -2.58 20 -7 20 C-4.79757472 13.28260289 -2.44267356 6.63365662 0 0 Z M0 5 C-0.67305018 6.60149886 -1.33822227 8.20631029 -2 9.8125 C-2.37125 10.70582031 -2.7425 11.59914063 -3.125 12.51953125 C-4.16633237 15.0331433 -4.16633237 15.0331433 -4 18 C-1.36 18 1.28 18 4 18 C3.52060632 13.28596212 3.03165952 9.33420699 1 5 C0.67 5 0.34 5 0 5 Z " fill="#505575" transform="translate(430,35)"/>
<path d="M0 0 C0.66 0.33 1.32 0.66 2 1 C2.80697995 3.44155613 3.49677391 5.82519005 4.125 8.3125 C4.30675781 8.98990234 4.48851563 9.66730469 4.67578125 10.36523438 C5.54861064 13.72201807 6 16.50580142 6 20 C1.71 20 -2.58 20 -7 20 C-5.04068712 13.14240492 -2.75665244 6.57678502 0 0 Z M0 4 C-0.67260351 5.76858691 -1.33788395 7.53996016 -2 9.3125 C-2.37125 10.29863281 -2.7425 11.28476562 -3.125 12.30078125 C-4.15418502 15.00271656 -4.15418502 15.00271656 -4 18 C-1.36 18 1.28 18 4 18 C3.71715982 16.22773547 3.42339502 14.457212 3.125 12.6875 C2.88136719 11.20830078 2.88136719 11.20830078 2.6328125 9.69921875 C2.11914546 6.79940173 2.11914546 6.79940173 0 4 Z " fill="#4C527A" transform="translate(85,35)"/>
<path d="M0 0 C0.33 0 0.66 0 1 0 C1.50464541 5.29877676 0.36521927 7.90716575 -3 12 C-5.75 13.875 -5.75 13.875 -8 15 C-7.56797518 21.19235577 -5.38074356 26.32316914 -2.9609375 32.01171875 C-1.9601127 35.12403979 -2.07784026 36.01443751 -3 39 C-4.34425253 35.58752916 -5.67347169 32.16939561 -7 28.75 C-7.3815625 27.78191406 -7.763125 26.81382813 -8.15625 25.81640625 C-8.5171875 24.88183594 -8.878125 23.94726562 -9.25 22.984375 C-9.58515625 22.12553711 -9.9203125 21.26669922 -10.265625 20.38183594 C-11 18 -11 18 -11 14 C-9.01399663 12.6459068 -7.01182457 11.31542376 -5 10 C-2.53236595 6.79874501 -0.62110978 4.03721354 0 0 Z " fill="#575A6B" transform="translate(515,43)"/>
<path d="M0 0 C0.66 0.33 1.32 0.66 2 1 C2 1.99 2 2.98 2 4 C1.34 4 0.68 4 0 4 C-0.103125 4.825 -0.20625 5.65 -0.3125 6.5 C-1.11646056 10.59289012 -2.46352158 14.12540225 -4 18 C-1.69 18 0.62 18 3 18 C3 18.33 3 18.66 3 19 C0.03 19 -2.94 19 -6 19 C-4.70024676 12.28460827 -2.70071112 6.27980887 0 0 Z " fill="#56596C" transform="translate(85,35)"/>
<path d="M0 0 C0.33 0 0.66 0 1 0 C1.00257813 0.61746094 1.00515625 1.23492187 1.0078125 1.87109375 C1.3946835 10.34356857 4.70508909 15.44496454 10.375 21.5625 C10.91125 22.036875 11.4475 22.51125 12 23 C11.67 23.66 11.34 24.32 11 25 C9.72282148 23.77742768 8.45353969 22.54660355 7.1875 21.3125 C6.47980469 20.62800781 5.77210938 19.94351563 5.04296875 19.23828125 C0.97329989 14.77954271 -0.38777073 11.76237873 -0.1875 5.6875 C-0.16042969 4.61886719 -0.13335937 3.55023438 -0.10546875 2.44921875 C-0.07066406 1.64097656 -0.03585937 0.83273438 0 0 Z " fill="#525671" transform="translate(303,35)"/>
<path d="M0 0 C1.32 0.33 2.64 0.66 4 1 C3.01 1.495 3.01 1.495 2 2 C2.33 6.95 2.66 11.9 3 17 C5.31 17.33 7.62 17.66 10 18 C10 18.33 10 18.66 10 19 C4.375 19.25 4.375 19.25 1 17 C0.61615491 14.06402461 0.396157 11.31972627 0.3125 8.375 C0.27833984 7.57320313 0.24417969 6.77140625 0.20898438 5.9453125 C0.12643122 3.96403682 0.06154084 1.98203963 0 0 Z " fill="#5C5D64" transform="translate(299,68)"/>
<path d="M0 0 C0.33 0 0.66 0 1 0 C1.33 5.28 1.66 10.56 2 16 C0.68 16 -0.64 16 -2 16 C-2 15.34 -2 14.68 -2 14 C-1.34 14 -0.68 14 0 14 C0 9.38 0 4.76 0 0 Z " fill="#5D5D63" transform="translate(569,22)"/>
</svg>
